<?xml version="1.0" encoding="UTF-8"?>
<svg version="1.1" xmlns="http://www.w3.org/2000/svg" width="289" height="289">
<path d="M0 0 C1.42529297 1.42675781 1.42529297 1.42675781 2.7421875 3.453125 C3.24363281 4.20722656 3.74507813 4.96132813 4.26171875 5.73828125 C4.79410156 6.56714844 5.32648438 7.39601563 5.875 8.25 C7.03776576 10.00606765 8.20187172 11.76124849 9.3671875 13.515625 C9.9662793 14.42505859 10.56537109 15.33449219 11.18261719 16.27148438 C14.04481687 20.56862887 17.02261259 24.78224248 20 29 C24.5460272 35.46920146 29.04682363 41.96655216 33.5 48.5 C38.5769623 55.94822419 43.72536984 63.34355201 48.90356445 70.72167969 C53.86910457 77.80084982 58.77771966 84.91761951 63.66455078 92.05126953 C65.98148862 95.43221978 68.30321304 98.8098787 70.625 102.1875 C71.08559814 102.85773193 71.54619629 103.52796387 72.02075195 104.21850586 C74.79668013 108.25599469 77.58232614 112.28656505 80.375 116.3125 C84.20636055 121.84129877 88.01302434 127.38674495 91.8125 132.9375 C92.36405762 133.74292236 92.91561523 134.54834473 93.48388672 135.37817383 C94.01127441 136.1492749 94.53866211 136.92037598 95.08203125 137.71484375 C95.54843018 138.39667725 96.0148291 139.07851074 96.49536133 139.78100586 C98.34598636 142.51024988 100.17353841 145.25454242 102 148 C101.99777939 147.32746185 101.99555878 146.65492371 101.99327087 145.96200562 C101.96640785 137.43301651 101.94823944 128.90402361 101.9375 120.375 C101.93621597 119.36238413 101.93621597 119.36238413 101.93490601 118.32931137 C101.91270954 98.53720032 102.0014254 78.77230818 103 59 C107.47915328 58.97113662 111.95828291 58.95324813 116.4375 58.9375 C117.71689453 58.92912109 118.99628906 58.92074219 120.31445312 58.91210938 C121.52939453 58.90888672 122.74433594 58.90566406 123.99609375 58.90234375 C125.12200928 58.89710693 126.2479248 58.89187012 127.40795898 58.88647461 C130 59 130 59 131 60 C131.09639184 61.79694038 131.12187425 63.59770893 131.12025452 65.39723206 C131.12231651 67.15364517 131.12231651 67.15364517 131.12442017 68.94554138 C131.12082489 70.24169876 131.11722961 71.53785614 131.11352539 72.87329102 C131.11324352 74.24287921 131.11340125 75.61246756 131.1139679 76.98205566 C131.11425588 80.71122948 131.10835909 84.44037141 131.10139394 88.16953778 C131.09516047 92.06264413 131.09455661 95.95575113 131.09336853 99.84886169 C131.09025519 107.22598146 131.08204178 114.60308649 131.07201904 121.98019975 C131.06085797 130.37667543 131.05534747 138.77315179 131.05032361 147.16963303 C131.03985916 164.44643056 131.02225968 181.72321372 131 199 C126.75035873 199.14513802 122.50135365 199.23402037 118.25 199.3125 C116.44015625 199.3753418 116.44015625 199.3753418 114.59375 199.43945312 C113.43359375 199.45556641 112.2734375 199.47167969 111.078125 199.48828125 C110.00981445 199.51446533 108.94150391 199.54064941 107.84082031 199.56762695 C105 199 105 199 102.62011719 196.59448242 C101 194 101 194 101 192 C100.34 191.67 99.68 191.34 99 191 C97.82874207 189.28061643 96.71136694 187.52424121 95.625 185.75 C93.28834122 181.94134913 90.79809757 178.47947063 88 175 C86.99760365 173.45230004 86.01940659 171.88873075 85.0625 170.3125 C81.74868261 165.03043254 78.16501947 159.9811955 74.5 154.9375 C73.93522949 154.15995361 73.37045898 153.38240723 72.78857422 152.58129883 C71.69105461 151.07192946 70.59308931 149.56288405 69.49462891 148.05419922 C67.54711823 145.37756497 65.60854527 142.6957234 63.6875 140 C62.88892578 138.88625 62.88892578 138.88625 62.07421875 137.75 C61 136 61 136 61 134 C60.34 134 59.68 134 59 134 C58.67 133.01 58.34 132.02 58 131 C57.34 130.67 56.68 130.34 56 130 C55.27306096 128.02111039 54.60183749 126.02045442 54 124 C53.34 124 52.68 124 52 124 C51.401875 122.824375 50.80375 121.64875 50.1875 120.4375 C46.96003061 114.62624191 42.99956395 109.42603613 39.0390625 104.10546875 C35.90021908 99.88542294 32.84480908 95.60955553 29.8125 91.3125 C29.31041016 90.6014209 28.80832031 89.8903418 28.29101562 89.15771484 C24.62785254 83.94577026 21.08424078 78.66770942 17.62109375 73.3203125 C16.15664537 71.06057561 16.15664537 71.06057561 14.59667969 69.66357422 C12.64641911 67.63160547 11.30759231 65.4618006 9.83203125 63.0625 C5.97433155 56.90316458 1.86073838 50.94850846 -2.3125 45 C-3.72545782 42.97930469 -5.13822712 40.95847753 -6.55078125 38.9375 C-7.16606689 38.05964844 -7.78135254 37.18179688 -8.4152832 36.27734375 C-9.62993631 34.5318062 -10.82039335 32.76940997 -12 31 C-23.83515529 32.89362485 -36.94987705 48.42171264 -43.76171875 57.60546875 C-63.18294867 85.16059477 -71.03291441 117.81502773 -65.40795898 151.1472168 C-61.90031679 169.96837861 -53.25070787 189.56169101 -40.5625 204.0625 C-38 207 -38 207 -38 209 C-37.34 209 -36.68 209 -36 209 C-35.236875 209.94875 -34.47375 210.8975 -33.6875 211.875 C-17.57197636 231.1359632 11.37646672 243.0401415 35.80541992 245.82348633 C40.17936415 246.17528983 44.55153709 246.19043744 48.9375 246.1875 C50.4380896 246.1884668 50.4380896 246.1884668 51.96899414 246.18945312 C60.75353338 246.12782198 69.3208206 245.30478939 78 244 C80.00760786 246.78626782 82.00475953 249.57986583 84 252.375 C84.57234375 253.1690625 85.1446875 253.963125 85.734375 254.78125 C86.27578125 255.54179687 86.8171875 256.30234375 87.375 257.0859375 C87.87773437 257.7876709 88.38046875 258.4894043 88.8984375 259.21240234 C90 261 90 261 90 263 C85.41850034 264.65105526 80.84503728 265.70734433 76.0625 266.5625 C75.38509766 266.68818359 74.70769531 266.81386719 74.00976562 266.94335938 C72.00872452 267.30980123 70.00531193 267.65778367 68 268 C66.35451172 268.28617187 66.35451172 268.28617187 64.67578125 268.578125 C45.88276762 270.73502773 26.57195773 269.3242478 8.68359375 263.21875 C4.81222046 261.93787146 0.96445264 260.9462119 -3 260 C-3 259.34 -3 258.68 -3 258 C-3.71027344 257.88785156 -4.42054687 257.77570313 -5.15234375 257.66015625 C-14.10039144 255.58578031 -22.0791507 249.81334115 -29.50390625 244.63671875 C-31.96879837 242.86831384 -31.96879837 242.86831384 -35 242 C-36.17354467 240.85998518 -37.34182119 239.71364289 -38.47265625 238.53125 C-40.90172634 236.09596746 -43.52601964 233.89007649 -46.1328125 231.6484375 C-49.54392765 228.6369509 -49.54392765 228.6369509 -51 227 C-51 226.34 -51 225.68 -51 225 C-51.66 225 -52.32 225 -53 225 C-54.28430862 223.52304509 -55.56580708 222.04193862 -56.78125 220.5078125 C-58.06784671 218.86186905 -58.06784671 218.86186905 -60 217 C-60.89570583 215.84915372 -61.76933365 214.68091964 -62.625 213.5 C-63.07101563 212.8915625 -63.51703125 212.283125 -63.9765625 211.65625 C-65 210 -65 210 -65 208 C-65.66 208 -66.32 208 -67 208 C-84.69560027 176.23866618 -94.49080015 144.70166417 -89 108 C-88.87737793 107.16774902 -88.75475586 106.33549805 -88.62841797 105.47802734 C-84.12708774 76.80863548 -69.69832898 51.90943782 -50 31 C-49.40058594 30.33613281 -48.80117188 29.67226563 -48.18359375 28.98828125 C-37.62482227 17.74535611 -16.14680073 0 0 0 Z " fill="#04ADED" transform="translate(97,14)"/>
<path d="M0 0 C1.0392009 -0.00101212 1.0392009 -0.00101212 2.09939575 -0.00204468 C37.20582078 0.05223916 67.65100364 12.35119559 94.1875 35.25 C95.26968304 36.10562356 96.35281754 36.96004721 97.4375 37.8125 C121.40284121 59.05450698 137.72690756 92.37946935 140.1875 124.25 C142.29133262 163.65837696 133.11135609 199.83756105 107.1875 230.25 C106.37539062 231.2090625 105.56328125 232.168125 104.7265625 233.15625 C90.96184886 249.0032585 72.70824973 261.5555093 53.1875 269.25 C52.1975 269.25 51.2075 269.25 50.1875 269.25 C48.3203125 266.87109375 48.3203125 266.87109375 46.3125 263.6875 C44.01478584 260.09679171 41.730355 256.5469563 39.1875 253.125 C37.1875 250.25 37.1875 250.25 37.1875 248.25 C36.5275 248.25 35.8675 248.25 35.1875 248.25 C34.589375 247.074375 33.99125 245.89875 33.375 244.6875 C30.40734072 239.30808304 26.7944518 234.46880729 23.11010742 229.56811523 C21.09166388 226.87767897 19.19248764 224.25842661 17.4765625 221.359375 C16.36168194 219.11625808 16.36168194 219.11625808 14.1875 218.25 C13.28289618 216.68433954 12.38462046 215.11480403 11.51171875 213.53125 C7.19635976 206.09712124 2.10857249 199.08887394 -2.83984375 192.06640625 C-5.7888812 187.85599832 -8.69492996 183.61624984 -11.60009766 179.37548828 C-13.88824753 176.03784456 -16.18670771 172.70895669 -18.51953125 169.40234375 C-18.9386377 168.80591064 -19.35774414 168.20947754 -19.78955078 167.5949707 C-20.93324443 165.96985538 -22.08171071 164.34810188 -23.23046875 162.7265625 C-24.8125 160.25 -24.8125 160.25 -24.8125 158.25 C-25.4725 158.25 -26.1325 158.25 -26.8125 158.25 C-28.1015625 156.5703125 -28.1015625 156.5703125 -29.4375 154.375 C-29.88351563 153.65570313 -30.32953125 152.93640625 -30.7890625 152.1953125 C-31.8125 150.25 -31.8125 150.25 -31.8125 148.25 C-32.4725 148.25 -33.1325 148.25 -33.8125 148.25 C-34.369375 147.239375 -34.92625 146.22875 -35.5 145.1875 C-37.03973212 142.47227346 -38.71031595 139.94929375 -40.5625 137.4375 C-42.8125 134.25 -42.8125 134.25 -42.8125 132.25 C-43.4725 132.25 -44.1325 132.25 -44.8125 132.25 C-45.15023437 131.62351563 -45.48796875 130.99703125 -45.8359375 130.3515625 C-46.50496094 129.12566406 -46.50496094 129.12566406 -47.1875 127.875 C-47.62835938 127.06289062 -48.06921875 126.25078125 -48.5234375 125.4140625 C-49.7568893 123.14185698 -49.7568893 123.14185698 -51.8125 121.25 C-51.8125 150.62 -51.8125 179.99 -51.8125 210.25 C-66.8125 210.25 -66.8125 210.25 -79.8125 209.25 C-79.8125 163.05 -79.8125 116.85 -79.8125 69.25 C-55.8125 69.25 -55.8125 69.25 -50.5 74.25 C-49.55833892 75.9505525 -48.61894886 77.65436373 -47.76855469 79.40234375 C-46.04625785 82.73082753 -43.79084002 85.69985495 -41.625 88.75 C-40.69658323 90.10496875 -39.77088518 91.46180362 -38.84765625 92.8203125 C-35.45806115 97.78240017 -32.01221338 102.70459271 -28.5625 107.625 C-27.99635986 108.43259766 -27.43021973 109.24019531 -26.84692383 110.07226562 C-24.57062291 113.31834173 -22.29386771 116.56409845 -20.01635742 119.80932617 C-16.52369435 124.79106879 -13.0593462 129.79043571 -9.625 134.8125 C-5.83321646 140.3424303 -2.00035265 145.84083854 1.875 151.3125 C8.67299082 160.91222223 15.38218805 170.57309973 22.09228516 180.234375 C24.91015212 184.29010708 27.73132572 188.34353397 30.55249023 192.39697266 C33.76545853 197.01374581 36.97682824 201.63162953 40.1875 206.25 C40.63673828 206.89614258 41.08597656 207.54228516 41.54882812 208.20800781 C48.48204008 218.18520821 55.33425179 228.21778748 62.1875 238.25 C68.17604597 236.14763812 72.38575426 232.29093102 77.1875 228.25 C77.95707031 227.61707031 78.72664062 226.98414063 79.51953125 226.33203125 C89.51816005 217.83932553 96.70857316 207.58098659 103.1875 196.25 C103.64898437 195.45335937 104.11046875 194.65671875 104.5859375 193.8359375 C118.80113421 167.48802514 121.23359773 134.97447912 113.09765625 106.42578125 C112.41114555 104.20500464 111.70128442 101.99115989 110.95703125 99.7890625 C110.1875 97.25 110.1875 97.25 110.1875 94.25 C109.5275 93.92 108.8675 93.59 108.1875 93.25 C106.89839248 90.78736012 105.68568905 88.3241361 104.5 85.8125 C99.17565916 74.89331427 92.54581128 66.07105516 84.1875 57.25 C83.50429687 56.52554688 82.82109375 55.80109375 82.1171875 55.0546875 C74.59683993 47.26142561 74.59683993 47.26142561 65.1875 42.25 C65.1875 41.59 65.1875 40.93 65.1875 40.25 C64.18009766 39.87488281 64.18009766 39.87488281 63.15234375 39.4921875 C60.26914986 38.28420903 57.53432396 36.88986132 54.77075195 35.43237305 C46.77606652 31.24909618 38.98820459 28.37040368 30.1875 26.25 C28.67349609 25.82074219 28.67349609 25.82074219 27.12890625 25.3828125 C10.91396454 21.04505739 -8.373502 20.67364113 -24.66015625 25.0078125 C-25.37042969 25.08773438 -26.08070312 25.16765625 -26.8125 25.25 C-29.06698393 23.32773623 -30.67150664 21.13956133 -32.29296875 18.67578125 C-32.95522461 17.67514648 -32.95522461 17.67514648 -33.63085938 16.65429688 C-34.08267578 15.96400391 -34.53449219 15.27371094 -35 14.5625 C-35.46341797 13.86060547 -35.92683594 13.15871094 -36.40429688 12.43554688 C-37.54351359 10.70910505 -38.67843098 8.97982761 -39.8125 7.25 C-39.4825 6.59 -39.1525 5.93 -38.8125 5.25 C-36.10006763 4.46357267 -33.44063332 3.7929131 -30.6875 3.1875 C-29.93984375 3.01412109 -29.1921875 2.84074219 -28.421875 2.66210938 C-18.91786437 0.50135434 -9.72582237 0.00848437 0 0 Z " fill="#096A96" transform="translate(145.8125,3.75)"/>
<path d="M0 0 C4.47915328 -0.02886338 8.95828291 -0.04675187 13.4375 -0.0625 C14.71689453 -0.07087891 15.99628906 -0.07925781 17.31445312 -0.08789062 C19.13686523 -0.09272461 19.13686523 -0.09272461 20.99609375 -0.09765625 C22.12200928 -0.10289307 23.2479248 -0.10812988 24.40795898 -0.11352539 C27 0 27 0 28 1 C28.09639184 2.79694038 28.12187425 4.59770893 28.12025452 6.39723206 C28.12162918 7.56817413 28.12300385 8.73911621 28.12442017 9.94554138 C28.11902725 11.88977745 28.11902725 11.88977745 28.11352539 13.87329102 C28.11324352 15.24287921 28.11340125 16.61246756 28.1139679 17.98205566 C28.11425588 21.71122948 28.10835909 25.44037141 28.10139394 29.16953778 C28.09516047 33.06264413 28.09455661 36.95575113 28.09336853 40.84886169 C28.09025519 48.22598146 28.08204178 55.60308649 28.07201904 62.98019975 C28.06085797 71.37667543 28.05534747 79.77315179 28.05032361 88.16963303 C28.03985916 105.44643056 28.02225968 122.72321372 28 140 C23.75035873 140.14513802 19.50135365 140.23402037 15.25 140.3125 C13.44015625 140.3753418 13.44015625 140.3753418 11.59375 140.43945312 C10.43359375 140.45556641 9.2734375 140.47167969 8.078125 140.48828125 C7.00981445 140.51446533 5.94150391 140.54064941 4.84082031 140.56762695 C2 140 2 140 -0.37988281 137.59448242 C-2 135 -2 135 -2 133 C-2.66 132.67 -3.32 132.34 -4 132 C-3.01 131.01 -2.02 130.02 -1 129 C-0.01 131.475 -0.01 131.475 1 134 C1.66 134 2.32 134 3 134 C3.33 135.32 3.66 136.64 4 138 C10.93 138 17.86 138 25 138 C25 93.45 25 48.9 25 3 C17.74 3 10.48 3 3 3 C3 33.03 3 63.06 3 94 C0 94 0 94 -1.5703125 92.64453125 C-6.72285995 86.57281076 -6.72285995 86.57281076 -7 82 C-2.125 86.75 -2.125 86.75 -1 89 C-1.00222061 88.32746185 -1.00444122 87.65492371 -1.00672913 86.96200562 C-1.03359215 78.43301651 -1.05176056 69.90402361 -1.0625 61.375 C-1.06378403 60.36238413 -1.06378403 60.36238413 -1.06509399 59.32931137 C-1.08729046 39.53720032 -0.9985746 19.77230818 0 0 Z " fill="#58BFE0" transform="translate(200,73)"/>
<path d="M0 0 C7.92 0 15.84 0 24 0 C24.33 1.65 24.66 3.3 25 5 C24.01 4.34 23.02 3.68 22 3 C15.07 2.67 8.14 2.34 1 2 C1.33 46.22 1.66 90.44 2 136 C11.9 136.495 11.9 136.495 22 137 C23.0475585 132.80976602 23.13322543 129.01947907 23.11352539 124.74316406 C23.11367142 123.91352646 23.11381744 123.08388885 23.1139679 122.22911072 C23.11327212 119.4912554 23.10549539 116.75346841 23.09765625 114.015625 C23.09579088 112.11562131 23.09436754 110.21561714 23.09336853 108.31561279 C23.08955273 103.31791859 23.07973041 98.32025351 23.06866455 93.3225708 C23.05843031 88.22156162 23.05386659 83.12054774 23.04882812 78.01953125 C23.03810732 68.01300805 23.02104212 58.00650645 23 48 C23.99 47.505 23.99 47.505 25 47 C25 77.03 25 107.06 25 138 C16.75 138 8.5 138 0 138 C0 92.46 0 46.92 0 0 Z " fill="#176185" transform="translate(67,74)"/>
<path d="M0 0 C3.51973101 3.25901019 6.52760275 6.8860931 9 11 C9 11.66 9 12.32 9 13 C4.41850034 14.65105526 -0.15496272 15.70734433 -4.9375 16.5625 C-5.61490234 16.68818359 -6.29230469 16.81386719 -6.99023438 16.94335938 C-8.99127548 17.30980123 -10.99468807 17.65778367 -13 18 C-14.09699219 18.19078125 -15.19398438 18.3815625 -16.32421875 18.578125 C-35.11723238 20.73502773 -54.42804227 19.3242478 -72.31640625 13.21875 C-76.18777954 11.93787146 -80.03554736 10.9462119 -84 10 C-84 9.34 -84 8.68 -84 8 C-82.00045254 7.95745644 -79.99958364 7.95919217 -78 8 C-77.67 8.33 -77.34 8.66 -77 9 C-75.31816052 9.23287008 -73.6287584 9.41264166 -71.9375 9.5625 C-71.01839844 9.64628906 -70.09929687 9.73007812 -69.15234375 9.81640625 C-68.44207031 9.87699219 -67.73179688 9.93757813 -67 10 C-67 10.66 -67 11.32 -67 12 C-61.70631688 12.68621818 -56.41982885 13.25772382 -51.1015625 13.71875 C-49 14 -49 14 -47 15 C-44.15331706 15.12357345 -41.3321054 15.18843629 -38.484375 15.203125 C-37.63578918 15.20882507 -36.78720337 15.21452515 -35.91290283 15.22039795 C-34.11398568 15.22985398 -32.31505116 15.23638432 -30.51611328 15.24023438 C-27.7747533 15.24991261 -25.0341518 15.28091841 -22.29296875 15.3125 C-20.54427528 15.3190329 -18.79557645 15.32428224 -17.046875 15.328125 C-16.23103943 15.3404718 -15.41520386 15.3528186 -14.574646 15.36553955 C-9.56463792 15.34611131 -6.45045255 14.51114921 -2 12 C-1.01 12 -0.02 12 1 12 C1.0984702 7.86425173 0.77403558 4.06368679 0 0 Z " fill="#5CC3E7" transform="translate(178,264)"/>
<path d="M0 0 C1.16896929 3.50690786 0.80371005 5.3825367 0.1875 9 C0.01605469 10.051875 -0.15539063 11.10375 -0.33203125 12.1875 C-1 15 -1 15 -3 18 C-3.39387788 20.32387947 -3.73486085 22.65793749 -4 25 C-4.66 25 -5.32 25 -6 25 C-6.05010043 31.23981609 -6.08604478 37.47951056 -6.10986328 43.71948242 C-6.11981136 45.83441207 -6.13337462 47.94932838 -6.15087891 50.06420898 C-6.23362613 60.33216588 -6.29259204 70.53996158 -5.1171875 80.75390625 C-5.03920929 81.43855453 -4.96123108 82.12320282 -4.88088989 82.82859802 C-4.42653273 86.26225412 -3.72394945 88.99624756 -2 92 C-1.59912944 93.48819919 -1.24523123 94.98978958 -0.9375 96.5 C-0.34678722 99.3510435 0.2756699 102.1795996 1 105 C1.66 105 2.32 105 3 105 C5.09350689 108.4019487 5.17942163 111.05272412 5 115 C0.04947642 112.52473821 -2.19798004 102.09054757 -4 97 C-14.08794135 65.74658288 -13.21610013 30.16954004 0 0 Z " fill="#62C4E5" transform="translate(17,90)"/>
<path d="M0 0 C1 2 1 2 -0.109375 5.421875 C-0.65200472 6.86618542 -1.19918116 8.3087928 -1.75 9.75 C-6.66593045 23.12382638 -9.18770082 36.61456564 -9.25 50.875 C-9.25394775 51.68074463 -9.25789551 52.48648926 -9.26196289 53.31665039 C-9.19647963 60.29365573 -8.27584674 67.00891995 -6.97949219 73.85693359 C-6.28444691 77.59582566 -5.89178264 80.35871439 -7 84 C-12.42137563 74.1297126 -12.46000921 62.65122382 -12.3125 51.6875 C-12.30249516 50.31616267 -12.29256732 48.94482477 -12.28271484 47.57348633 C-12.00856633 22.00856633 -12.00856633 22.00856633 -8 18 C-7.29151218 16.41433678 -6.58992562 14.82510253 -5.9296875 13.21875 C-4.06331306 8.76454547 -2.00902715 4.39127279 0 0 Z " fill="#72CBE7" transform="translate(39,92)"/>
<path d="M0 0 C8.91 0 17.82 0 27 0 C27 0.33 27 0.66 27 1 C18.42 1 9.84 1 1 1 C1 31.36 1 61.72 1 93 C-5 89 -5 89 -6.375 85.25 C-6.58125 84.1775 -6.7875 83.105 -7 82 C-2.125 86.75 -2.125 86.75 -1 89 C-1.00222061 88.32746185 -1.00444122 87.65492371 -1.00672913 86.96200562 C-1.03359215 78.43301651 -1.05176056 69.90402361 -1.0625 61.375 C-1.06378403 60.36238413 -1.06378403 60.36238413 -1.06509399 59.32931137 C-1.08730042 39.5283206 -0.87447908 19.7850892 0 0 Z " fill="#BFF4FD" transform="translate(200,73)"/>
<path d="M0 0 C2.3431213 0.25561323 4.67843403 0.59270772 7 1 C7.33 1.66 7.66 2.32 8 3 C10.52733235 3.65555119 10.52733235 3.65555119 13 4 C13 4.99 13 5.98 13 7 C13.66 7 14.32 7 15 7 C15 7.66 15 8.32 15 9 C15.66 9 16.32 9 17 9 C17.4125 9.70125 17.825 10.4025 18.25 11.125 C20.93869648 15.54214422 24.02029956 19.34009985 29 21 C29 21.66 29 22.32 29 23 C29.99 23.33 30.98 23.66 32 24 C32 24.99 32 25.98 32 27 C32.5775 27.020625 33.155 27.04125 33.75 27.0625 C36.72382296 28.3015929 37.71303027 30.22629851 39.18359375 33.01171875 C40.41608472 36.0133355 40.73661295 38.77350866 41 42 C38.53016743 39.70024572 36.73989787 37.24385597 34.875 34.4375 C31.01731798 28.85807358 26.66026573 23.91827352 22 19 C21.31679687 18.27554688 20.63359375 17.55109375 19.9296875 16.8046875 C12.40933993 9.01142561 12.40933993 9.01142561 3 4 C3 3.34 3 2.68 3 2 C2.01 1.67 1.02 1.34 0 1 C0 0.67 0 0.34 0 0 Z " fill="#72AABF" transform="translate(208,42)"/>
<path d="M0 0 C1.75 0.12109375 1.75 0.12109375 4 1 C6.22148986 4.02417663 8.07612665 7.18992292 10 10.41015625 C10.66 11.26480469 11.32 12.11945313 12 13 C13.32 13 14.64 13 16 13 C15.9175 13.86625 15.835 14.7325 15.75 15.625 C16.05876395 19.79331336 17.62777566 21.62137745 20 25 C20.75 27.875 20.75 27.875 21 30 C21.99 29.67 22.98 29.34 24 29 C24.66 31.64 25.32 34.28 26 37 C21.94137212 33.20368918 18.88506905 29.17945252 15.8125 24.5625 C14.85546337 23.14365574 13.89710003 21.72570558 12.9375 20.30859375 C12.45410156 19.59429199 11.97070312 18.87999023 11.47265625 18.14404297 C8.73033157 14.15148737 5.87245749 10.23978922 2.99731445 6.34204102 C0 2.21698776 0 2.21698776 0 0 Z " fill="#54C1EA" transform="translate(114,85)"/>
<path d="M0 0 C0.66 0.33 1.32 0.66 2 1 C-1.28470255 4.39419263 -4.70697152 7.61907735 -8.1875 10.8125 C-9.04730469 11.60269531 -9.90710938 12.39289062 -10.79296875 13.20703125 C-13 15 -13 15 -15 15 C-15.33 15.99 -15.66 16.98 -16 18 C-18.33203016 20.64296752 -19.61673278 21.87224426 -23 23 C-23.391875 23.886875 -23.78375 24.77375 -24.1875 25.6875 C-26.59799198 30.09288189 -29.88946439 32.2466246 -34 35 C-27.38030753 20.58086789 -12.7107123 8.92454268 0 0 Z " fill="#71CDEC" transform="translate(67,28)"/>
<path d="M0 0 C4.58823814 4.20517559 7.87322493 8.95974561 11.3125 14.125 C12.45708495 15.82245703 13.60291512 17.51907509 14.75 19.21484375 C15.30300781 20.0332373 15.85601562 20.85163086 16.42578125 21.69482422 C19.50850482 26.2089489 22.73774019 30.61418243 26 35 C25.67 35.66 25.34 36.32 25 37 C21.33637419 34.32654333 19.22748343 31.92461366 17 28 C16.34 27.67 15.68 27.34 15 27 C13.9296875 25.44140625 13.9296875 25.44140625 12.875 23.5625 C12.52179688 22.94503906 12.16859375 22.32757813 11.8046875 21.69140625 C11 20 11 20 11 18 C10.34 18 9.68 18 9 18 C8.34 16.02 7.68 14.04 7 12 C6.34 12 5.68 12 5 12 C3.7109375 10.390625 3.7109375 10.390625 2.375 8.25 C1.92898437 7.55390625 1.48296875 6.8578125 1.0234375 6.140625 C0 4 0 4 0 0 Z " fill="#4686A1" transform="translate(92,77)"/>
<path d="M0 0 C1.65 0 3.3 0 5 0 C2.29753008 2.71255376 -0.41642399 5.41110736 -3.15625 8.0859375 C-4.27089766 9.18222626 -5.3854801 10.27858135 -6.5 11.375 C-7.05558594 11.91382813 -7.61117187 12.45265625 -8.18359375 13.0078125 C-11.95789016 16.73770542 -15.01966737 20.60734557 -18 25 C-18.33 23.68 -18.66 22.36 -19 21 C-18.34 21 -17.68 21 -17 21 C-16.896875 19.9275 -16.79375 18.855 -16.6875 17.75 C-16.02761975 14.15065316 -15.59996178 12.49996325 -13 10 C-12.01 10 -11.02 10 -10 10 C-9.67 9.01 -9.34 8.02 -9 7 C-7.35 6.67 -5.7 6.34 -4 6 C-3.67 4.68 -3.34 3.36 -3 2 C-2.01 2 -1.02 2 0 2 C0 1.34 0 0.68 0 0 Z " fill="#22AEE2" transform="translate(69,50)"/>
<path d="M0 0 C1 2 1 2 0.44140625 3.9453125 C0.15136719 4.66460937 -0.13867188 5.38390625 -0.4375 6.125 C-0.86869141 7.21167969 -0.86869141 7.21167969 -1.30859375 8.3203125 C-1.53675781 8.87460938 -1.76492187 9.42890625 -2 10 C-2.66 10 -3.32 10 -4 10 C-3.896875 10.9075 -3.79375 11.815 -3.6875 12.75 C-4 16 -4 16 -6.0625 17.875 C-7.031875 18.57625 -8.00125 19.2775 -9 20 C-10.17199414 21.28919355 -11.31599345 22.60415333 -12.4375 23.9375 C-15.38065654 27.3905455 -18.42715413 30.21143737 -22 33 C-22.66 32.67 -23.32 32.34 -24 32 C-23.28714844 31.24976563 -22.57429687 30.49953125 -21.83984375 29.7265625 C-13.21098599 20.54679814 -6.33533516 10.90698727 0 0 Z " fill="#6199B1" transform="translate(251,197)"/>
<path d="M0 0 C1.32 0 2.64 0 4 0 C2.45933175 5.19225208 -0.84546896 8.60926975 -4.375 12.5625 C-5.24125 13.5515332 -5.24125 13.5515332 -6.125 14.56054688 C-8.98736683 17.8117512 -11.88565872 20.985379 -15 24 C-15.66 23.67 -16.32 23.34 -17 23 C-16.44570312 22.53851563 -15.89140625 22.07703125 -15.3203125 21.6015625 C-10.36021617 17.13571065 -8.09648192 13.97986633 -7.3515625 7.296875 C-6.97767958 4.85417325 -6.20768573 3.14045113 -5 1 C-3.68 1.66 -2.36 2.32 -1 3 C-0.67 2.01 -0.34 1.02 0 0 Z " fill="#5597B3" transform="translate(257,222)"/>
<path d="M0 0 C1.75 0.125 1.75 0.125 4 1 C8 6.22222222 8 6.22222222 8 9 C8.66 9 9.32 9 10 9 C14 15.75 14 15.75 14 18 C14.66 18 15.32 18 16 18 C16 18.66 16 19.32 16 20 C16.66 20 17.32 20 18 20 C18.33 21.65 18.66 23.3 19 25 C19.66 25 20.32 25 21 25 C21.33 26.65 21.66 28.3 22 30 C17.94850172 28.64950057 17.20628031 26.62893784 14.9375 23.0625 C12.25981563 18.79675372 12.25981563 18.79675372 9 15 C7.80624802 13.22626474 6.64315165 11.43176087 5.5 9.625 C4.58734375 8.19027344 4.58734375 8.19027344 3.65625 6.7265625 C2.31481373 4.51825467 1.105318 2.33222097 0 0 Z " fill="#74CCE8" transform="translate(176,174)"/>
<path d="M0 0 C2.11856679 0.94970236 3.75935857 1.74842033 5.375 3.4375 C7.62317674 5.5992084 10.20577898 6.63028381 13 8 C15.01254782 9.31431695 17.01310269 10.64721885 19 12 C19.9075 12.495 20.815 12.99 21.75 13.5 C24.19253075 15.12835383 24.9726219 16.29145774 26 19 C28.31 19 30.62 19 33 19 C33 20.32 33 21.64 33 23 C27.12894937 21.85131618 23.21848375 19.29577952 18.4296875 15.75390625 C16.0222368 13.96276869 16.0222368 13.96276869 13.41796875 12.45703125 C8.05137801 9.22320517 3.70820213 5.0431549 0 0 Z " fill="#4FBBE2" transform="translate(52,245)"/>
<path d="M0 0 C3.96782603 3.70706304 6.89117981 7.56328208 9.8125 12.125 C14.01808015 18.57000788 18.40395225 24.82486321 23 31 C22.67 31.66 22.34 32.32 22 33 C20.68 32.67 19.36 32.34 18 32 C17.773125 30.948125 17.54625 29.89625 17.3125 28.8125 C16.15923572 24.77204262 14.04613607 22.90767533 11 20 C5 12.03764706 5 12.03764706 5 8 C4.01 7.67 3.02 7.34 2 7 C0 4 0 4 0 0 Z " fill="#4D8CA6" transform="translate(177,199)"/>
<path d="M0 0 C4.10142673 3.81476787 7.10222912 7.86195262 10.125 12.5625 C10.98075201 13.87696593 11.83749578 15.19078681 12.6953125 16.50390625 C13.09137695 17.11121582 13.48744141 17.71852539 13.89550781 18.34423828 C15.19146695 20.28703114 16.56536403 22.15747734 18 24 C17.67 24.66 17.34 25.32 17 26 C13.01618925 23.83735988 10.11016455 21.28788824 7 18 C7.33 17.01 7.66 16.02 8 15 C6.33091283 12.3243878 6.33091283 12.3243878 4.0625 9.5625 C0 4.44082333 0 4.44082333 0 0 Z " fill="#44BBE7" transform="translate(171,123)"/>
<path d="M0 0 C0 0.66 0 1.32 0 2 C-1.134375 2.28875 -2.26875 2.5775 -3.4375 2.875 C-4.613125 3.24625 -5.78875 3.6175 -7 4 C-7.33 4.66 -7.66 5.32 -8 6 C-9.7421875 7.0703125 -9.7421875 7.0703125 -11.875 8.125 C-12.92300781 8.65480469 -12.92300781 8.65480469 -13.9921875 9.1953125 C-16 10 -16 10 -19 10 C-19.66 11.32 -20.32 12.64 -21 14 C-23.31 14 -25.62 14 -28 14 C-24.45366961 9.86734298 -20.20277147 7.75344496 -15.4375 5.3125 C-14.66986328 4.90966797 -13.90222656 4.50683594 -13.11132812 4.09179688 C-5.24986914 0 -5.24986914 0 0 0 Z " fill="#52C0E6" transform="translate(97,14)"/>
<path d="M0 0 C4.74179533 4.33994827 8.20996734 9.32361414 11.8125 14.625 C12.7087207 15.91277344 12.7087207 15.91277344 13.62304688 17.2265625 C14.18701172 18.0515625 14.75097656 18.8765625 15.33203125 19.7265625 C15.84483643 20.47502441 16.3576416 21.22348633 16.88598633 21.99462891 C18 24 18 24 18 27 C13.05772001 23.65669295 9.79483143 19.21509782 7 14 C7 13.01 7 12.02 7 11 C5.68 11 4.36 11 3 11 C3 9.35 3 7.7 3 6 C2.01 5.67 1.02 5.34 0 5 C0 3.35 0 1.7 0 0 Z " fill="#5190AA" transform="translate(145,153)"/>
<path d="M0 0 C0.66 0 1.32 0 2 0 C2.66 1.98 3.32 3.96 4 6 C4.66 6 5.32 6 6 6 C8.04169485 8.90548882 9 10.40142046 9 14 C9.66 14 10.32 14 11 14 C11 14.66 11 15.32 11 16 C11.66 16 12.32 16 13 16 C13.12375 17.11375 13.12375 17.11375 13.25 18.25 C13.78810733 21.11886662 13.78810733 21.11886662 16 23 C18.32825843 25.32825843 18.64267338 26.78406045 19 30 C15.41193683 26.61127367 12.54315201 23.23858668 10 19 C10 18.34 10 17.68 10 17 C9.34 17 8.68 17 8 17 C7.66226563 16.37351563 7.32453125 15.74703125 6.9765625 15.1015625 C6.53054687 14.28429687 6.08453125 13.46703125 5.625 12.625 C5.18414062 11.81289062 4.74328125 11.00078125 4.2890625 10.1640625 C3.0556107 7.89185698 3.0556107 7.89185698 1 6 C0.60235737 4.01178687 0.26224651 2.01055661 0 0 Z " fill="#7CAEC2" transform="translate(93,119)"/>
<path d="M0 0 C1.99954746 -0.04254356 4.00041636 -0.04080783 6 0 C6.33 0.33 6.66 0.66 7 1 C8.68183948 1.23287008 10.3712416 1.41264166 12.0625 1.5625 C12.98160156 1.64628906 13.90070313 1.73007812 14.84765625 1.81640625 C15.91306641 1.90728516 15.91306641 1.90728516 17 2 C17 2.66 17 3.32 17 4 C19.64 4.33 22.28 4.66 25 5 C25 5.66 25 6.32 25 7 C27.31 7.33 29.62 7.66 32 8 C32 8.33 32 8.66 32 9 C26.0967444 9.25036129 21.55677044 8.55684597 16 6.625 C14.66745073 6.17734673 13.3341142 5.73203011 12 5.2890625 C11.3503125 5.07282227 10.700625 4.85658203 10.03125 4.63378906 C6.72304207 3.60156457 3.37005329 2.80490112 0 2 C0 1.34 0 0.68 0 0 Z " fill="#46BBE4" transform="translate(94,272)"/>
<path d="M0 0 C2.31 0.66 4.62 1.32 7 2 C7.66 5.3 8.32 8.6 9 12 C10.65 12 12.3 12 14 12 C13.979375 12.9075 13.95875 13.815 13.9375 14.75 C13.9889755 17.42672588 14.2215017 19.46988052 15 22 C11.56401679 18.80043765 8.89239164 15.23099822 6.25 11.375 C5.63318359 10.49714844 5.63318359 10.49714844 5.00390625 9.6015625 C2 5.25038933 2 5.25038933 2 3 C1.34 3 0.68 3 0 3 C0 2.01 0 1.02 0 0 Z " fill="#639CB3" transform="translate(181,249)"/>
<path d="M0 0 C0.33 0 0.66 0 1 0 C1.46648794 15.78284182 1.46648794 15.78284182 -2.4375 20.875 C-4.51029863 23.69400614 -5.22196876 26.62872138 -6.15625 29.9765625 C-7 32 -7 32 -10 34 C-9.4416901 29.81574338 -8.45644194 26.44766711 -6.6875 22.625 C-3.51488217 15.30215536 -1.76158959 7.75493072 0 0 Z " fill="#73A9BD" transform="translate(262,163)"/>
<path d="M0 0 C3.56055049 3.37510515 6.34555922 6.75419476 9 10.875 C11.90438719 15.33059398 14.87209979 19.69913721 18 24 C17.67 24.66 17.34 25.32 17 26 C12.15376821 23.92304352 10.62810723 20.95208837 8.33203125 16.4765625 C6.55633422 13.17511992 4.41944609 10.18170333 2.234375 7.140625 C0.8605542 4.75817627 0.39742383 2.70626706 0 0 Z " fill="#5FC3E5" transform="translate(142,81)"/>
<path d="M0 0 C0.309375 0.639375 0.61875 1.27875 0.9375 1.9375 C1.8345163 3.93610821 1.8345163 3.93610821 3 5 C3.35020669 6.70100391 3.65502053 8.41144686 3.9375 10.125 C4.7045908 14.52298724 5.68551175 18.7279132 7 23 C7.37773284 24.31171611 7.75277055 25.62421158 8.125 26.9375 C8.41375 27.948125 8.7025 28.95875 9 30 C9.66 30 10.32 30 11 30 C13.09350689 33.4019487 13.17942163 36.05272412 13 40 C9.6977933 38.34889665 8.96534782 34.77536963 7.625 31.5 C7.31554443 30.7462207 7.00608887 29.99244141 6.68725586 29.21582031 C3.12042066 20.21056441 -0.47436122 9.79081559 0 0 Z " fill="#A2E2F4" transform="translate(9,165)"/>
<path d="M0 0 C0.66 0 1.32 0 2 0 C2.33 1.32 2.66 2.64 3 4 C4.32 4 5.64 4 7 4 C7 3.34 7 2.68 7 2 C10.97336059 1.25972727 14.73351015 0.87190941 18.7734375 0.8671875 C19.8459375 0.86589844 20.9184375 0.86460938 22.0234375 0.86328125 C23.12945312 0.86714844 24.23546875 0.87101562 25.375 0.875 C27.02242187 0.86919922 27.02242187 0.86919922 28.703125 0.86328125 C34.56452112 0.8703093 40.20483688 1.11169032 46 2 C46 2.33 46 2.66 46 3 C44.92105469 2.97679687 43.84210938 2.95359375 42.73046875 2.9296875 C30.52228266 2.75227892 18.04121894 3.01358039 6.06640625 5.64453125 C5.04353516 5.82048828 5.04353516 5.82048828 4 6 C1.46155991 4.18682851 1.00510975 3.01532925 0 0 Z " fill="#A9D3E0" transform="translate(115,23)"/>
<path d="M0 0 C1.16896929 3.50690786 0.80371005 5.3825367 0.1875 9 C0.01605469 10.051875 -0.15539062 11.10375 -0.33203125 12.1875 C-1 15 -1 15 -3 18 C-3.39387788 20.32387947 -3.73486085 22.65793749 -4 25 C-4.66 25 -5.32 25 -6 25 C-6.33 26.98 -6.66 28.96 -7 31 C-7.33 31 -7.66 31 -8 31 C-7.71579135 20.25174559 -4.0991068 9.85692194 0 0 Z " fill="#71CAE7" transform="translate(17,90)"/>
<path d="M0 0 C3.85550018 3.63635985 6.86741138 7.41691848 9.8125 11.8125 C10.21919922 12.40998047 10.62589844 13.00746094 11.04492188 13.62304688 C12.03479703 15.07874564 13.01809735 16.53891174 14 18 C13.67 18.66 13.34 19.32 13 20 C10.03595495 17.19195732 7.55500981 14.81684226 6 11 C4.02 11.99 4.02 11.99 2 13 C1.855625 11.783125 1.71125 10.56625 1.5625 9.3125 C1.17219047 6.17329623 0.67648144 3.0924866 0 0 Z " fill="#3DBBE8" transform="translate(108,32)"/>
<path d="M0 0 C3.40843742 2.88406243 4.86591384 4.3708265 5.8125 8.8125 C5.9053125 10.3903125 5.9053125 10.3903125 6 12 C6.8971875 12.1546875 6.8971875 12.1546875 7.8125 12.3125 C10.50141816 13.15758856 11.40984985 13.6526355 13 16 C13.55075556 18.67963762 13.77562991 21.26268493 14 24 C10.91910327 21.22719294 9.31224548 18.93673644 8 15 C7.34 15 6.68 15 6 15 C4.7109375 13.3203125 4.7109375 13.3203125 3.375 11.125 C2.92898437 10.40570313 2.48296875 9.68640625 2.0234375 8.9453125 C1 7 1 7 1 5 C0.34 5 -0.32 5 -1 5 C-0.67 3.35 -0.34 1.7 0 0 Z " fill="#79ACC0" transform="translate(113,147)"/>
<path d="M0 0 C2.65721974 0.66430493 4.49228228 1.33696073 6.1875 3.55078125 C7.95594728 6.58704919 9.43898771 9.49367319 10 13 C11.32 13.33 12.64 13.66 14 14 C14.66 16.97 15.32 19.94 16 23 C11.49102322 19.03756586 8.64147974 14.45416152 5.55078125 9.328125 C4.21039778 6.89833424 4.21039778 6.89833424 2 6 C1.27306096 4.02111039 0.60183749 2.02045442 0 0 Z " fill="#6AA3B9" transform="translate(158,216)"/>
<path d="M0 0 C0.66 0 1.32 0 2 0 C2 0.66 2 1.32 2 2 C2.99 2.33 3.98 2.66 5 3 C5 3.99 5 4.98 5 6 C5.86625 6.0309375 5.86625 6.0309375 6.75 6.0625 C9.72382296 7.3015929 10.71303027 9.22629851 12.18359375 12.01171875 C13.41608472 15.0133355 13.73661295 17.77350866 14 21 C8.10723443 15.48336841 3.76825092 8.08431173 0 1 C0 0.67 0 0.34 0 0 Z " fill="#367B98" transform="translate(235,63)"/>
<path d="M0 0 C3.50697095 3.24957859 6.09368873 6.81312173 8.75 10.75 C9.36681641 11.65298828 9.36681641 11.65298828 9.99609375 12.57421875 C11.00123432 14.04686657 12.00115478 15.52307502 13 17 C12.67 17.66 12.34 18.32 12 19 C10 17.625 10 17.625 8 16 C8 15.34 8 14.68 8 14 C7.34 14 6.68 14 6 14 C5.0234375 12.20963542 4.046875 10.41927083 3.0703125 8.62890625 C2.08589976 6.83381685 2.08589976 6.83381685 0 6 C0 4.02 0 2.04 0 0 Z " fill="#5693AB" transform="translate(164,180)"/>
<path d="M0 0 C3.50697095 3.24957859 6.09368873 6.81312173 8.75 10.75 C9.36681641 11.65298828 9.36681641 11.65298828 9.99609375 12.57421875 C11.00123432 14.04686657 12.00115478 15.52307502 13 17 C12.67 17.66 12.34 18.32 12 19 C11.34 19 10.68 19 10 19 C9.34 17.35 8.68 15.7 8 14 C7.34 14 6.68 14 6 14 C5.0234375 12.27473958 4.046875 10.54947917 3.0703125 8.82421875 C2.10571419 7.18017711 1.05732941 5.58599412 0 4 C0 2.68 0 1.36 0 0 Z " fill="#5895AE" transform="translate(118,114)"/>
<path d="M0 0 C5.59457615 1.31044126 9.69998895 3.41652691 14.4375 6.625 C15.07365234 7.04523437 15.70980469 7.46546875 16.36523438 7.8984375 C17.91553873 8.92420279 19.45855561 9.96096813 21 11 C20.01 11.66 19.02 12.32 18 13 C17.51789063 12.6390625 17.03578125 12.278125 16.5390625 11.90625 C15.90742188 11.4421875 15.27578125 10.978125 14.625 10.5 C13.99851563 10.0359375 13.37203125 9.571875 12.7265625 9.09375 C11.05905387 7.82161899 11.05905387 7.82161899 9 8 C9 7.01 9 6.02 9 5 C7.88625 4.9175 6.7725 4.835 5.625 4.75 C2 4 2 4 0.5625 1.9375 C0.376875 1.298125 0.19125 0.65875 0 0 Z " fill="#6AA3B9" transform="translate(205,17)"/>
<path d="M0 0 C1.875 0.125 1.875 0.125 4 1 C5.25 4.0625 5.25 4.0625 6 7 C6.66 7 7.32 7 8 7 C8.79275148 8.4160599 9.58415312 9.83287553 10.375 11.25 C10.81585938 12.03890625 11.25671875 12.8278125 11.7109375 13.640625 C12.85747823 15.73914197 13.94649552 17.8536077 15 20 C14.34 20 13.68 20 13 20 C11.1875 17.9375 11.1875 17.9375 9 15 C8.54753906 14.39929688 8.09507813 13.79859375 7.62890625 13.1796875 C4 8.26575779 4 8.26575779 4 6 C3.34 6 2.68 6 2 6 C1.34 4.02 0.68 2.04 0 0 Z " fill="#7ACEEA" transform="translate(28,216)"/>
<path d="M0 0 C1.32 0.33 2.64 0.66 4 1 C4.061875 1.556875 4.12375 2.11375 4.1875 2.6875 C4.88546277 5.22246287 4.88546277 5.22246287 7.3125 7.25 C10.42746445 10.43740548 12.56020599 13.76476178 14 18 C13.67 18.66 13.34 19.32 13 20 C10.82567574 17.04722495 8.66187271 14.08690044 6.5 11.125 C5.87996094 10.28324219 5.25992188 9.44148437 4.62109375 8.57421875 C4.03457031 7.76855469 3.44804687 6.96289062 2.84375 6.1328125 C2.02680664 5.01737061 2.02680664 5.01737061 1.19335938 3.87939453 C0 2 0 2 0 0 Z " fill="#66C5E5" transform="translate(158,148)"/>
<path d="M0 0 C0.33 0 0.66 0 1 0 C1.22951631 3.45725945 1.4296071 6.9156576 1.625 10.375 C1.68945312 11.34050781 1.75390625 12.30601562 1.8203125 13.30078125 C2.17190847 19.84925615 1.61086075 25.64207398 0 32 C-0.66 32 -1.32 32 -2 32 C-1.84660156 30.76378906 -1.69320313 29.52757812 -1.53515625 28.25390625 C-0.89493571 22.49192135 -0.66036322 16.72829033 -0.4375 10.9375 C-0.39431641 9.88111328 -0.35113281 8.82472656 -0.30664062 7.73632812 C-0.20162663 5.15765121 -0.09947123 2.57889565 0 0 Z " fill="#296F8E" transform="translate(265,135)"/>
<path d="M0 0 C1.33345325 2.66690651 0.58691168 4.22606517 -0.25390625 6.98046875 C-1.54138595 10.46542688 -3.24946705 13.72837288 -5 17 C-6.32 16.67 -7.64 16.34 -9 16 C-7.56691865 12.04093183 -5.66858051 8.71281819 -3.375 5.1875 C-2.74335938 4.21167969 -2.11171875 3.23585938 -1.4609375 2.23046875 C-0.73777344 1.12638672 -0.73777344 1.12638672 0 0 Z " fill="#45BEEA" transform="translate(32,63)"/>
<path d="M0 0 C5.06563284 4.45161674 8.9929287 9.96717995 12 16 C11.67 16.99 11.34 17.98 11 19 C10.67 17.68 10.34 16.36 10 15 C9.01 15 8.02 15 7 15 C5.17578125 12.734375 5.17578125 12.734375 3.3125 9.75 C2.68988281 8.77546875 2.06726563 7.8009375 1.42578125 6.796875 C0 4 0 4 0 0 Z " fill="#6BA2B7" transform="translate(258,60)"/>
<path d="M0 0 C5.28 0 10.56 0 16 0 C16 0.66 16 1.32 16 2 C16.721875 2.103125 17.44375 2.20625 18.1875 2.3125 C21.24491993 3.05986932 23.38329635 4.28045189 26 6 C23.42062166 7.28968917 22.56642887 6.79709087 19.82421875 6.0390625 C18.58188477 5.70261719 18.58188477 5.70261719 17.31445312 5.359375 C16.44755859 5.11703125 15.58066406 4.8746875 14.6875 4.625 C12.98342538 4.15756732 11.27900726 3.69138477 9.57421875 3.2265625 C8.37998291 2.90026855 8.37998291 2.90026855 7.16162109 2.56738281 C4.79032795 1.94496523 2.41402537 1.42805398 0 1 C0 0.67 0 0.34 0 0 Z " fill="#78AEC2" transform="translate(163,26)"/>
<path d="M0 0 C0.66 0.33 1.32 0.66 2 1 C-6.72324723 11.36162362 -6.72324723 11.36162362 -12 14 C-15.375 14.25 -15.375 14.25 -18 14 C-17 12 -17 12 -14.76171875 11.125 C-11.60470189 9.83897333 -9.43985534 8.16230152 -6.8125 6 C-5.95269531 5.29875 -5.09289062 4.5975 -4.20703125 3.875 C-1.98203265 2.03608063 -1.98203265 2.03608063 0 0 Z " fill="#6BA3B9" transform="translate(225,230)"/>
<path d="M0 0 C0.66 0.33 1.32 0.66 2 1 C0.19389405 7.34339651 -2.25627734 12.56938255 -6 18 C-7 16 -7 16 -6.1875 13.3125 C-5.795625 12.219375 -5.40375 11.12625 -5 10 C-4.30543195 7.67389625 -3.65458853 5.33781618 -3 3 C-2.34 3 -1.68 3 -1 3 C-0.67 2.01 -0.34 1.02 0 0 Z " fill="#659DB4" transform="translate(272,198)"/>
<path d="M0 0 C2.35953094 2.35953094 2.49141413 3.77895617 3 7 C3.66 7 4.32 7 5 7 C7.04061541 14.17859349 8.37369729 20.52605426 8 28 C7.67 28 7.34 28 7 28 C6.34 23.05 5.68 18.1 5 13 C4.34 13 3.68 13 3 13 C2.49487756 11.39743892 1.99608373 9.79288208 1.5 8.1875 C1.2215625 7.29417969 0.943125 6.40085937 0.65625 5.48046875 C0 3 0 3 0 0 Z " fill="#5A94AC" transform="translate(257,101)"/>
<path d="M0 0 C1.734375 0.12109375 1.734375 0.12109375 4 1 C6.140625 3.72265625 6.140625 3.72265625 8.25 7.0625 C8.95640625 8.16722656 9.6628125 9.27195312 10.390625 10.41015625 C10.92171875 11.26480469 11.4528125 12.11945313 12 13 C11.67 13.66 11.34 14.32 11 15 C6.02357681 11.63359608 2.90940204 7.17893559 0 2 C0 1.34 0 0.68 0 0 Z " fill="#5FC3E4" transform="translate(114,85)"/>
<path d="M0 0 C0.33 0 0.66 0 1 0 C1 6.93 1 13.86 1 21 C-5 17 -5 17 -6.375 13.25 C-6.58125 12.1775 -6.7875 11.105 -7 10 C-2.125 14.75 -2.125 14.75 -1 17 C-0.67 11.39 -0.34 5.78 0 0 Z " fill="#B4F1FC" transform="translate(200,145)"/>
<path d="M0 0 C0.66 0 1.32 0 2 0 C2.84678051 1.86896555 3.67686211 3.74550181 4.5 5.625 C4.9640625 6.66914062 5.428125 7.71328125 5.90625 8.7890625 C7.02767398 12.08124291 7.207138 14.55115223 7 18 C6.67 17.01 6.34 16.02 6 15 C5.34 14.67 4.68 14.34 4 14 C2.67578125 11.6015625 2.67578125 11.6015625 1.3125 8.625 C0.85488281 7.64789063 0.39726562 6.67078125 -0.07421875 5.6640625 C-1 3 -1 3 0 0 Z " fill="#629CB2" transform="translate(250,83)"/>
<path d="M0 0 C1 2 1 2 -0.14453125 5.66796875 C-0.69299192 7.17723644 -1.24935118 8.68365112 -1.8125 10.1875 C-3.74145187 15.42063296 -5.53798915 20.61552103 -7 26 C-7.33 26 -7.66 26 -8 26 C-8.30768022 20.15407582 -7.6178099 16.25607143 -5 11 C-4.09981532 9.02280866 -3.20421487 7.04352565 -2.3125 5.0625 C-1.54240925 3.37466099 -0.77183035 1.68704421 0 0 Z " fill="#96DDF2" transform="translate(39,92)"/>
<path d="M0 0 C7.34467941 1.61831919 14.67349113 3.30142762 22 5 C22 5.33 22 5.66 22 6 C9.20934959 6.56707317 9.20934959 6.56707317 3 3 C1.97653571 2.02402825 0.97077852 1.02839149 0 0 Z " fill="#6DCAE9" transform="translate(105,254)"/>
<path d="M0 0 C1.06347656 0.00322266 2.12695312 0.00644531 3.22265625 0.00976562 C4.86427734 0.02233398 4.86427734 0.02233398 6.5390625 0.03515625 C7.65667969 0.03966797 8.77429688 0.04417969 9.92578125 0.04882812 C12.67193054 0.06056381 15.41796836 0.07698262 18.1640625 0.09765625 C18.1640625 0.42765625 18.1640625 0.75765625 18.1640625 1.09765625 C16.8853125 1.15824219 15.6065625 1.21882812 14.2890625 1.28125 C12.5807214 1.36572841 10.87238849 1.45037266 9.1640625 1.53515625 C8.32488281 1.57447266 7.48570312 1.61378906 6.62109375 1.65429688 C-2.36994384 1.75403498 -2.36994384 1.75403498 -10.8359375 4.09765625 C-12.51248479 3.8182317 -14.18201904 3.48937378 -15.8359375 3.09765625 C-10.85418351 0.22356741 -5.65075681 -0.03038041 0 0 Z " fill="#146287" transform="translate(136.8359375,4.90234375)"/>
<path d="M0 0 C4.54109672 4.26587874 8.24735246 9.03612328 12 14 C11.67 14.66 11.34 15.32 11 16 C1.97107232 8.55810474 1.97107232 8.55810474 0 4 C0 2.68 0 1.36 0 0 Z " fill="#77CEEA" transform="translate(47,207)"/>
<path d="M0 0 C0 4.09459203 -1.96927276 6.76750835 -4 10.1875 C-4.57234375 11.16879883 -4.57234375 11.16879883 -5.15625 12.16992188 C-6.09838932 13.78333545 -7.04844266 15.39212298 -8 17 C-8.33 17 -8.66 17 -9 17 C-8 9.57142857 -8 9.57142857 -7 6 C-6.01 6 -5.02 6 -4 6 C-3.8453125 5.071875 -3.8453125 5.071875 -3.6875 4.125 C-3 2 -3 2 0 0 Z " fill="#52BDE1" transform="translate(49,75)"/>
<path d="M0 0 C0.66 0.33 1.32 0.66 2 1 C-2.12324647 5.25209792 -6.51282966 9.13635705 -11 13 C-11 8.95161432 -9.7369717 7.94750798 -7 5 C-4.72833329 3.21477156 -2.40031883 1.61559922 0 0 Z " fill="#53BEE3" transform="translate(67,28)"/>
<path d="M0 0 C1.3125 2.5625 1.3125 2.5625 2 5 C1.00419922 4.52433594 1.00419922 4.52433594 -0.01171875 4.0390625 C-3.60924343 2.78815849 -7.0439801 2.54809948 -10.8125 2.375 C-11.50537109 2.33632813 -12.19824219 2.29765625 -12.91210938 2.2578125 C-14.60767015 2.16426432 -16.30379712 2.08107636 -18 2 C-18 1.67 -18 1.34 -18 1 C-15.93939936 0.63494484 -13.87640368 0.28339285 -11.8125 -0.0625 C-10.66394531 -0.25972656 -9.51539063 -0.45695312 -8.33203125 -0.66015625 C-5.17990644 -0.98165081 -2.99479198 -0.99826399 0 0 Z " fill="#7ED2ED" transform="translate(176,259)"/>
<path d="M0 0 C2.17258443 2.17258443 2.41834376 2.98562502 3.0703125 5.88671875 C3.24433594 6.66080078 3.41835938 7.43488281 3.59765625 8.23242188 C3.77167969 9.04259766 3.94570313 9.85277344 4.125 10.6875 C4.30675781 11.47833984 4.48851562 12.26917969 4.67578125 13.08398438 C5.71880203 17.83247371 6.19515244 22.1407043 6 27 C5.67 27 5.34 27 5 27 C4.70996094 25.38931641 4.70996094 25.38931641 4.4140625 23.74609375 C4.15122282 22.30986267 3.88819176 20.8736666 3.625 19.4375 C3.43550781 18.38079102 3.43550781 18.38079102 3.2421875 17.30273438 C2.60853297 13.86515856 1.87930884 10.58614061 0.8984375 7.22265625 C0 4 0 4 0 0 Z " fill="#A7D0DD" transform="translate(279,101)"/>
<path d="M0 0 C1.65 0 3.3 0 5 0 C0 5 -5 10 -10 15 C-10 12 -10 12 -8.72265625 10.53515625 C-7.61863558 9.55582497 -6.51446962 8.57665746 -5.41015625 7.59765625 C-3.78887424 5.76080212 -3.4075392 4.38848924 -3 2 C-2.01 2 -1.02 2 0 2 C0 1.34 0 0.68 0 0 Z " fill="#7ED3EE" transform="translate(69,50)"/>
<path d="M0 0 C0.99 0 1.98 0 3 0 C3 0.66 3 1.32 3 2 C3.66 2 4.32 2 5 2 C6 4 7 6 8 8 C8.5775 9.0725 9.155 10.145 9.75 11.25 C10.1625 12.1575 10.575 13.065 11 14 C10.67 14.66 10.34 15.32 10 16 C9.52949219 15.32453125 9.05898437 14.6490625 8.57421875 13.953125 C7.95160156 13.06109375 7.32898438 12.1690625 6.6875 11.25 C6.07261719 10.36828125 5.45773438 9.4865625 4.82421875 8.578125 C3.6771203 6.95695803 2.49625243 5.35865998 1.26953125 3.796875 C0 2 0 2 0 0 Z " fill="#74ABBF" transform="translate(147,200)"/>
<path d="M0 0 C3.63559661 3.43361902 6.36113346 6.7973607 9 11 C8.67 11.66 8.34 12.32 8 13 C6.35 11.35 4.7 9.7 3 8 C2.01 8.495 2.01 8.495 1 9 C0.67 6.03 0.34 3.06 0 0 Z " fill="#7AD0EB" transform="translate(122,52)"/>
<path d="M0 0 C1.32 0.33 2.64 0.66 4 1 C4.0825 1.78375 4.165 2.5675 4.25 3.375 C4.72214303 6.13680512 4.72214303 6.13680512 7 7.25 C7.66 7.4975 8.32 7.745 9 8 C10 9 10 9 10.0625 11.5625 C10.041875 12.366875 10.02125 13.17125 10 14 C5.40783094 9.93265026 2.7832093 5.43614072 0 0 Z " fill="#69C8E7" transform="translate(88,48)"/>
<path d="M0 0 C0.66 0.33 1.32 0.66 2 1 C2 1.66 2 2.32 2 3 C-5.06141117 5.60157253 -12.4404571 7.39787068 -20 7 C-20 6.67 -20 6.34 -20 6 C-14.96052569 4.42516428 -10.24540755 3.59222343 -5 3 C-3.32943851 2.68676972 -1.66041075 2.36321485 0 2 C0 1.34 0 0.68 0 0 Z " fill="#91DBF2" transform="translate(185,274)"/>
<path d="M0 0 C-4.04998722 3.40198926 -8.63626649 6 -14 6 C-13.375 4.125 -13.375 4.125 -12 2 C-7.92086433 0.14584742 -4.4471735 -0.21177017 0 0 Z " fill="#5F9BB2" transform="translate(210,267)"/>
<path d="M0 0 C5.07648175 2.78387709 9.4833069 6.40829416 14 10 C13.01 10.495 13.01 10.495 12 11 C7.82670833 9.23794352 4.29942909 7.11089028 1 4 C0.1875 1.75 0.1875 1.75 0 0 Z " fill="#68C8E7" transform="translate(66,230)"/>
<path d="M0 0 C0.66 0 1.32 0 2 0 C2.66 1.98 3.32 3.96 4 6 C4.66 6 5.32 6 6 6 C8.04169485 8.90548882 9 10.40142046 9 14 C4.74772492 12.58257497 3.14336104 9.83466775 1 6 C0.1875 2.5625 0.1875 2.5625 0 0 Z " fill="#5292AB" transform="translate(93,119)"/>
<path d="M0 0 C-1.98 0.33 -3.96 0.66 -6 1 C-5.01 1.33 -4.02 1.66 -3 2 C-1.796875 4.21484375 -1.796875 4.21484375 -0.75 6.9375 C-0.21632813 8.28134766 -0.21632813 8.28134766 0.328125 9.65234375 C1 12 1 12 0 14 C-2.64 10.04 -5.28 6.08 -8 2 C-6.14210462 -1.71579076 -3.44525918 -1.06921837 0 0 Z " fill="#7DB1C4" transform="translate(114,9)"/>
<path d="M0 0 C5.41390145 0.68302874 10.63677579 1.77706302 15.9375 3.0625 C17.10635742 3.3419043 17.10635742 3.3419043 18.29882812 3.62695312 C20.19989697 4.08181009 22.10004657 4.5405062 24 5 C24 5.33 24 5.66 24 6 C17.93092582 6.27338172 13.22377946 5.46092445 7.5 3.5 C6.77296875 3.26152344 6.0459375 3.02304687 5.296875 2.77734375 C3.52776065 2.19539824 1.76334654 1.59919543 0 1 C0 0.67 0 0.34 0 0 Z " fill="#ACE7F7" transform="translate(102,275)"/>
<path d="M0 0 C2.11856679 0.94970236 3.75935857 1.74842033 5.375 3.4375 C7.05491329 5.22467411 7.05491329 5.22467411 10 6.375 C13.33722492 8.1826635 14.36514473 9.63946416 16 13 C8.43384105 11.06447097 4.72338354 5.80301406 0 0 Z " fill="#8BD8F0" transform="translate(52,245)"/>
<path d="M0 0 C0.99 0.495 0.99 0.495 2 1 C3.30127777 6.00251693 2.93783609 10.7842346 2.5625 15.875 C2.51029297 16.65875 2.45808594 17.4425 2.40429688 18.25 C2.27571149 20.1670912 2.13871383 22.08361503 2 24 C1.67 24 1.34 24 1 24 C0.3533402 15.98603754 -0.16677223 8.04212755 0 0 Z " fill="#0C5F85" transform="translate(265,125)"/>
<path d="M0 0 C3.63559661 3.43361902 6.36113346 6.7973607 9 11 C8.67 11.66 8.34 12.32 8 13 C1.18198874 7.6641651 1.18198874 7.6641651 0 4 C0 2.68 0 1.36 0 0 Z " fill="#7CD0EC" transform="translate(97,16)"/>
<path d="M0 0 C0.66 0 1.32 0 2 0 C2 0.66 2 1.32 2 2 C2.66 2 3.32 2 4 2 C4.33 3.65 4.66 5.3 5 7 C5.66 7 6.32 7 7 7 C7.33 8.65 7.66 10.3 8 12 C4.7460332 10.9153444 4.22215123 10.36559948 2.3125 7.6875 C1.65701172 6.79611328 1.65701172 6.79611328 0.98828125 5.88671875 C0 4 0 4 0 0 Z " fill="#5DC2E4" transform="translate(190,192)"/>
<path d="M0 0 C2.08163365 3.12245047 3.32575613 6.07034881 4.6875 9.5625 C5.14511719 10.71878906 5.60273437 11.87507812 6.07421875 13.06640625 C7 16 7 16 6 18 C3 13.25 3 13.25 3 11 C2.34 11 1.68 11 1 11 C-0.20272819 8.59454362 -0.10071472 7.05003047 -0.0625 4.375 C-0.05347656 3.55773437 -0.04445312 2.74046875 -0.03515625 1.8984375 C-0.02355469 1.27195313 -0.01195312 0.64546875 0 0 Z " fill="#84D4EE" transform="translate(33,176)"/>
<path d="M0 0 C1.875 0.3125 1.875 0.3125 4 1 C6 4 6 4 6 7 C6.66 7 7.32 7 8 7 C8.33 8.98 8.66 10.96 9 13 C5.41193683 9.61127367 2.54315201 6.23858668 0 2 C0 1.34 0 0.68 0 0 Z " fill="#6FCAE7" transform="translate(98,62)"/>
<path d="M0 0 C3.9252025 3.70090521 6.94580156 7.54959656 10 12 C9.67 12.66 9.34 13.32 9 14 C5.02337282 11.12799148 2.4109842 8.28619413 0 4 C0 2.68 0 1.36 0 0 Z " fill="#7CD0EA" transform="translate(171,123)"/>
<path d="M0 0 C3.63559661 3.43361902 6.36113346 6.7973607 9 11 C8.67 11.66 8.34 12.32 8 13 C1.84665227 7.01295896 1.84665227 7.01295896 0 4 C0 2.68 0 1.36 0 0 Z " fill="#6DC9E8" transform="translate(113,39)"/>
<path d="M0 0 C0.33 0 0.66 0 1 0 C0.41396137 5.50876311 -0.59998676 10.96407479 -3 16 C-3.99 16.66 -4.98 17.32 -6 18 C-5.41347648 13.51006131 -4.2356462 9.77456816 -2.4375 5.625 C-1.98246094 4.56539062 -1.52742188 3.50578125 -1.05859375 2.4140625 C-0.70925781 1.61742187 -0.35992187 0.82078125 0 0 Z " fill="#99C4D3" transform="translate(258,179)"/>
<path d="M0 0 C2.46800047 1.15173355 4.04783565 2.04783565 6 4 C6.56520003 6.65537372 6.73788198 9.29144713 7 12 C3.66488612 9.0098979 1.78478881 6.10501426 0 2 C0 1.34 0 0.68 0 0 Z " fill="#5693AC" transform="translate(120,159)"/>
<path d="M0 0 C1.65 0.33 3.3 0.66 5 1 C4.27991594 5.60853797 2.68704061 9.67237409 1 14 C0.12159004 10.90279155 0.00564594 9.09354597 1 6 C0.34 5.67 -0.32 5.34 -1 5 C-0.67 3.35 -0.34 1.7 0 0 Z " fill="#19A9E1" transform="translate(35,87)"/>
<path d="M0 0 C4.95769796 -0.29162929 8.02806853 -0.12940055 12 3 C12 3.66 12 4.32 12 5 C12.66 5 13.32 5 14 5 C14 5.66 14 6.32 14 7 C9.0276578 5.50829734 4.58154261 3.39542583 0 1 C0 0.67 0 0.34 0 0 Z " fill="#619CB4" transform="translate(194,35)"/>
<path d="M0 0 C0.66 0 1.32 0 2 0 C2.33 1.32 2.66 2.64 3 4 C4.32 4 5.64 4 7 4 C7 3.34 7 2.68 7 2 C12.75 0.875 12.75 0.875 15 2 C15 2.66 15 3.32 15 4 C13.23397681 4.41676948 11.46185699 4.8077738 9.6875 5.1875 C8.70136719 5.40792969 7.71523437 5.62835937 6.69921875 5.85546875 C4 6 4 6 2.20703125 4.73828125 C1 3 1 3 0 0 Z " fill="#73ABC1" transform="translate(115,23)"/>
<path d="M0 0 C3.03393954 3.46735947 4.9351577 7.52949826 6 12 C5.67 12.99 5.34 13.98 5 15 C1.28836791 12.3006312 0.70152875 8.2999586 0 4 C0 2.68 0 1.36 0 0 Z " fill="#82B3C6" transform="translate(273,85)"/>
<path d="M0 0 C2.64752004 2.57784846 4.94432065 4.91648098 7 8 C7 9.32 7 10.64 7 12 C6.34 12 5.68 12 5 12 C3.7109375 10.390625 3.7109375 10.390625 2.375 8.25 C1.92898437 7.55390625 1.48296875 6.8578125 1.0234375 6.140625 C0 4 0 4 0 0 Z " fill="#5794AC" transform="translate(92,77)"/>
<path d="M0 0 C0.75 2.125 0.75 2.125 1 4 C0.5875 3.484375 0.175 2.96875 -0.25 2.4375 C-1.87337657 0.77030475 -1.87337657 0.77030475 -3.9375 1.125 C-6.27293703 2.11579147 -8.04484656 3.3939811 -10 5 C-10.66 4.67 -11.32 4.34 -12 4 C-11.6875 2.0625 -11.6875 2.0625 -11 0 C-10.01 -0.33 -9.02 -0.66 -8 -1 C-7.360625 -1.226875 -6.72125 -1.45375 -6.0625 -1.6875 C-3.3447887 -2.09927444 -2.21100616 -1.60107343 0 0 Z " fill="#81D5F0" transform="translate(87,44)"/>
<path d="M0 0 C4.30764815 1.56641751 8.06171464 3.68336156 12 6 C12 6.33 12 6.66 12 7 C10.02 7 8.04 7 6 7 C6 6.34 6 5.68 6 5 C4.35 4.67 2.7 4.34 1 4 C0.67 2.68 0.34 1.36 0 0 Z " fill="#6BCAEA" transform="translate(80,241)"/>
<path d="M0 0 C0.4125 0.474375 0.825 0.94875 1.25 1.4375 C3.13326435 3.36284249 3.13326435 3.36284249 7 4 C7.66 6.97 8.32 9.94 9 13 C5.41193683 9.61127367 2.54315201 6.23858668 0 2 C0 1.34 0 0.68 0 0 Z " fill="#81B4C7" transform="translate(165,226)"/>
<path d="M0 0 C1.49828872 3.88235819 0.43110582 6.43449288 -0.9375 10.25 C-1.31777344 11.32765625 -1.69804687 12.4053125 -2.08984375 13.515625 C-2.39019531 14.33546875 -2.69054687 15.1553125 -3 16 C-4.09404518 12.66355017 -3.89669485 10.2934212 -3.1875 6.875 C-3.01605469 6.00617188 -2.84460938 5.13734375 -2.66796875 4.2421875 C-2 2 -2 2 0 0 Z " fill="#7FB4C8" transform="translate(280,179)"/>
<path d="M0 0 C0.33 0.66 0.66 1.32 1 2 C-2.06093224 5.93548431 -4.49115974 8.68116787 -9 11 C-6.92623208 6.33402219 -4.25832657 2.83888438 0 0 Z " fill="#5DC2E4" transform="translate(42,52)"/>
<path d="M0 0 C0.99 0 1.98 0 3 0 C3 0.66 3 1.32 3 2 C3.66 2 4.32 2 5 2 C5.66 4.64 6.32 7.28 7 10 C3.57863071 7.71908714 2.11003112 5.49246529 0 2 C0 1.34 0 0.68 0 0 Z " fill="#7BCFEA" transform="translate(107,75)"/>
<path d="M0 0 C-2.22247026 2.5558408 -3.74230403 3.26439123 -7 4 C-7.66 4.66 -8.32 5.32 -9 6 C-9 5.01 -9 4.02 -9 3 C-9.99 3.33 -10.98 3.66 -12 4 C-12 3.34 -12 2.68 -12 2 C-7.82262526 0.40861915 -4.46839215 -0.21278058 0 0 Z " fill="#0F648A" transform="translate(120,8)"/>
<path d="M0 0 C1.32 0.33 2.64 0.66 4 1 C4.103125 1.639375 4.20625 2.27875 4.3125 2.9375 C4.539375 3.618125 4.76625 4.29875 5 5 C5.99 5.33 6.98 5.66 8 6 C7.34 7.32 6.68 8.64 6 10 C5.67 9.01 5.34 8.02 5 7 C4.34 7 3.68 7 3 7 C2.01 4.69 1.02 2.38 0 0 Z " fill="#6FCAE8" transform="translate(146,131)"/>
<path d="M0 0 C3.38746512 1.12915504 4.37451366 2.22743073 6.6875 4.875 C7.31011719 5.57367188 7.93273437 6.27234375 8.57421875 6.9921875 C10 9 10 9 10 12 C9.2575 11.21625 8.515 10.4325 7.75 9.625 C5.28216753 6.97398801 5.28216753 6.97398801 2.75 6 C1 5 1 5 0.25 2.375 C0.1675 1.59125 0.085 0.8075 0 0 Z " fill="#82B6CA" transform="translate(243,43)"/>
<path d="M0 0 C9.59453303 0.59453303 9.59453303 0.59453303 13 4 C10 4 7 4 4 4 C4 3.01 4 2.02 4 1 C2.68 0.67 1.36 0.34 0 0 Z " fill="#5696B1" transform="translate(192,13)"/>
<path d="M0 0 C1.60332791 -0.08121924 3.20784026 -0.13929134 4.8125 -0.1875 C6.15248047 -0.23970703 6.15248047 -0.23970703 7.51953125 -0.29296875 C10.41647515 0.04918998 11.22555028 0.75393573 13 3 C11.20759337 2.88610125 9.41605165 2.75852313 7.625 2.625 C6.12839844 2.52058594 6.12839844 2.52058594 4.6015625 2.4140625 C2 2 2 2 0 0 Z " fill="#2BACDE" transform="translate(119,278)"/>
<path d="M0 0 C5.78461538 3.44615385 5.78461538 3.44615385 6.875 6.25 C6.936875 7.11625 6.936875 7.11625 7 8 C6.01 8.495 6.01 8.495 5 9 C2 5.25 2 5.25 2 3 C1.01 3 0.02 3 -1 3 C-0.67 2.01 -0.34 1.02 0 0 Z " fill="#4286A3" transform="translate(251,53)"/>
<path d="M0 0 C2.2477975 2.05233685 3.0022242 3.00667261 4 6 C4.515625 6.515625 5.03125 7.03125 5.5625 7.5625 C6.036875 8.036875 6.51125 8.51125 7 9 C7 9.66 7 10.32 7 11 C5.1875 10.9375 5.1875 10.9375 3 10 C1.18721244 6.5039097 0 3.96018245 0 0 Z " fill="#41B6DF" transform="translate(35,187)"/>
<path d="M0 0 C3.39417765 3.12621626 5.6062718 5.56541027 7 10 C2.37837838 8.54054054 2.37837838 8.54054054 0.6875 6.125 C0 4 0 4 0 0 Z " fill="#6AA3B9" transform="translate(99,87)"/>
<path d="M0 0 C0.33 0 0.66 0 1 0 C1.17615457 3.87540045 1.28341107 6.75515269 -1 10 C-1.99 10.33 -2.98 10.66 -4 11 C-3.39301257 6.87248551 -1.96189209 3.6678852 0 0 Z " fill="#75CEEA" transform="translate(22,79)"/>
<path d="M0 0 C3.81684226 1.55500981 6.19195732 4.03595495 9 7 C4.71193127 6.52354792 2.73352513 5.34097516 0 2 C0 1.34 0 0.68 0 0 Z " fill="#679FB5" transform="translate(226,29)"/>
<path d="M0 0 C3.39417765 3.12621626 5.6062718 5.56541027 7 10 C4 10 4 10 2 9 C1.3671875 6.93359375 1.3671875 6.93359375 0.875 4.4375 C0.70742187 3.61121094 0.53984375 2.78492188 0.3671875 1.93359375 C0.24601563 1.29550781 0.12484375 0.65742188 0 0 Z " fill="#6DA7BD" transform="translate(193,222)"/>
<path d="M0 0 C3.39417765 3.12621626 5.6062718 5.56541027 7 10 C3.73539027 8.19587357 2.11070205 7.16605307 0 4 C0 2.68 0 1.36 0 0 Z " fill="#70A6BB" transform="translate(177,199)"/>
<path d="M0 0 C2.60608273 2.5162178 4.89381685 5.05134359 7 8 C6.67 8.66 6.34 9.32 6 10 C3 8.375 3 8.375 0 6 C-0.375 2.75 -0.375 2.75 0 0 Z " fill="#71A8BD" transform="translate(164,180)"/>
<path d="M0 0 C0.33 0 0.66 0 1 0 C0.88570603 1.77155654 0.75816963 3.54226229 0.625 5.3125 C0.52058594 6.79169922 0.52058594 6.79169922 0.4140625 8.30078125 C0 11 0 11 -2 14 C-2 10.37 -2 6.74 -2 3 C-1.34 3 -0.68 3 0 3 C0 2.01 0 1.02 0 0 Z " fill="#83B5C7" transform="translate(283,165)"/>
<path d="M0 0 C3.39417765 3.12621626 5.6062718 5.56541027 7 10 C4.0625 8.375 4.0625 8.375 1 6 C0.125 2.75 0.125 2.75 0 0 Z " fill="#67A0B6" transform="translate(138,143)"/>
<path d="M0 0 C0.66 0 1.32 0 2 0 C2.33 1.32 2.66 2.64 3 4 C3.99 3.67 4.98 3.34 6 3 C6.66 5.64 7.32 8.28 8 11 C4.31993178 7.61831569 2.0214155 4.57478244 0 0 Z " fill="#84D5EE" transform="translate(132,111)"/>
<path d="M0 0 C2.60608273 2.5162178 4.89381685 5.05134359 7 8 C6.67 8.66 6.34 9.32 6 10 C3.54896452 9.01958581 2.23241214 8.3486182 0.75 6.125 C0 4 0 4 0 0 Z " fill="#74CEEB" transform="translate(178,264)"/>
<path d="M0 0 C2.97 0.33 5.94 0.66 9 1 C9 2.32 9 3.64 9 5 C2.25 3.375 2.25 3.375 0 0 Z " fill="#74CFEE" transform="translate(76,263)"/>
<path d="M0 0 C2.375 0.5 2.375 0.5 5 2 C6.08241903 4.66525288 6.49272107 7.1407915 7 10 C4.4000702 7.48972295 2.00908773 5.0136316 0 2 C0 1.34 0 0.68 0 0 Z " fill="#659EB6" transform="translate(174,239)"/>
<path d="M0 0 C3.39417765 3.12621626 5.6062718 5.56541027 7 10 C4.625 8.9375 4.625 8.9375 2 7 C0.6875 3.3125 0.6875 3.3125 0 0 Z " fill="#74AABE" transform="translate(200,232)"/>
<path d="M0 0 C1.75 0.125 1.75 0.125 4 1 C6.25 4.0625 6.25 4.0625 8 7 C7.67 7.66 7.34 8.32 7 9 C4.03595495 6.19195732 1.55500981 3.81684226 0 0 Z " fill="#5EC0E0" transform="translate(176,174)"/>
<path d="M0 0 C3.39417765 3.12621626 5.6062718 5.56541027 7 10 C4.625 8.9375 4.625 8.9375 2 7 C0.6875 3.3125 0.6875 3.3125 0 0 Z " fill="#73A8BD" transform="translate(131,133)"/>
<path d="M0 0 C2.60608273 2.5162178 4.89381685 5.05134359 7 8 C6.67 8.66 6.34 9.32 6 10 C2.64888166 7.76592111 1.18446044 6.73784176 0.1875 2.75 C0.125625 1.8425 0.06375 0.935 0 0 Z " fill="#72AABF" transform="translate(118,114)"/>
<path d="M0 0 C3.08089673 2.77280706 4.68775452 5.06326356 6 9 C4.02 8.01 2.04 7.02 0 6 C0 4.02 0 2.04 0 0 Z " fill="#6DCBEA" transform="translate(165,114)"/>
<path d="M0 0 C3.39417765 3.12621626 5.6062718 5.56541027 7 10 C4.625 8.9375 4.625 8.9375 2 7 C0.6875 3.3125 0.6875 3.3125 0 0 Z " fill="#80D2EC" transform="translate(142,81)"/>
<path d="M0 0 C2.74931827 0.68732957 4.53418821 1.35560222 6.22265625 3.69140625 C7.20324656 5.43116325 8.10688055 7.2137611 9 9 C6.00306862 8.00102287 4.97290587 7.34869747 3 5 C3 4.34 3 3.68 3 3 C2.34 3 1.68 3 1 3 C0.67 2.01 0.34 1.02 0 0 Z " fill="#7FD2ED" transform="translate(43,236)"/>
<path d="M0 0 C2.60608273 2.5162178 4.89381685 5.05134359 7 8 C6.67 8.66 6.34 9.32 6 10 C2.64888166 7.76592111 1.18446044 6.73784176 0.1875 2.75 C0.125625 1.8425 0.06375 0.935 0 0 Z " fill="#79ADC1" transform="translate(157,170)"/>
<path d="M0 0 C2.83374881 3.20336822 3.5205537 5.78087253 4 10 C0.91910327 7.22719294 -0.68775452 4.93673644 -2 1 C-1.34 0.67 -0.68 0.34 0 0 Z " fill="#67C8E9" transform="translate(142,121)"/>
<path d="M0 0 C2.60608273 2.5162178 4.89381685 5.05134359 7 8 C6.67 8.66 6.34 9.32 6 10 C2.64888166 7.76592111 1.18446044 6.73784176 0.1875 2.75 C0.125625 1.8425 0.06375 0.935 0 0 Z " fill="#74AABF" transform="translate(111,104)"/>
<path d="M0 0 C3.80881639 1.44472346 5.29742886 3.32603071 7 7 C6.67 7.99 6.34 8.98 6 10 C5.67 8.68 5.34 7.36 5 6 C4.01 6 3.02 6 2 6 C1.34 4.02 0.68 2.04 0 0 Z " fill="#87B7C8" transform="translate(263,69)"/>
<path d="M0 0 C2.60608273 2.5162178 4.89381685 5.05134359 7 8 C6.67 8.66 6.34 9.32 6 10 C4.125 9.5 4.125 9.5 2 8 C1.01505446 5.34822355 0.54087618 2.79452693 0 0 Z " fill="#76CFEA" transform="translate(131,65)"/>
<path d="M0 0 C1.32 0.33 2.64 0.66 4 1 C4.33 3.97 4.66 6.94 5 10 C1.32769295 6.92000054 0.43197635 4.7517398 0 0 Z " fill="#4C90AC" transform="translate(191,261)"/>
<path d="M0 0 C0 3.41321235 -0.66867466 4.39472885 -2.5 7.1875 C-2.9640625 7.90292969 -3.428125 8.61835937 -3.90625 9.35546875 C-4.2671875 9.89816406 -4.628125 10.44085938 -5 11 C-5.33 10.34 -5.66 9.68 -6 9 C-3.65625 2.4375 -3.65625 2.4375 0 0 Z " fill="#8DDAF1" transform="translate(49,75)"/>
<path d="M0 0 C1 2 1 2 0.44140625 3.9453125 C0.15136719 4.66460937 -0.13867188 5.38390625 -0.4375 6.125 C-0.72496094 6.84945312 -1.01242188 7.57390625 -1.30859375 8.3203125 C-1.53675781 8.87460938 -1.76492187 9.42890625 -2 10 C-2.99 9.67 -3.98 9.34 -5 9 C-3.7508258 5.54074837 -2.32472205 2.85306797 0 0 Z " fill="#6BCAE9" transform="translate(32,63)"/>
<path d="M0 0 C2.31 0.33 4.62 0.66 7 1 C7.66 2.65 8.32 4.3 9 6 C7.02 5.34 5.04 4.68 3 4 C3 3.34 3 2.68 3 2 C2.01 1.67 1.02 1.34 0 1 C0 0.67 0 0.34 0 0 Z " fill="#79AEC2" transform="translate(208,42)"/>
<path d="M0 0 C2.31 0 4.62 0 7 0 C7.66 1.32 8.32 2.64 9 4 C5.17902761 3.46930939 2.93828597 2.50298434 0 0 Z " fill="#76CEEC" transform="translate(85,268)"/>
<path d="M0 0 C1 2 1 2 0.44140625 3.9453125 C0.15136719 4.66460937 -0.13867188 5.38390625 -0.4375 6.125 C-0.72496094 6.84945312 -1.01242188 7.57390625 -1.30859375 8.3203125 C-1.53675781 8.87460938 -1.76492187 9.42890625 -2 10 C-2.99 10 -3.98 10 -5 10 C-3.66511872 6.40608886 -2.03977277 3.24509304 0 0 Z " fill="#86B7C9" transform="translate(251,197)"/>
<path d="M0 0 C1.890625 0.21484375 1.890625 0.21484375 4 1 C5.046875 3.06640625 5.046875 3.06640625 5.75 5.5625 C5.99234375 6.38878906 6.2346875 7.21507812 6.484375 8.06640625 C6.65453125 8.70449219 6.8246875 9.34257812 7 10 C3.60582235 6.87378374 1.3937282 4.43458973 0 0 Z " fill="#93DBF1" transform="translate(158,148)"/>
<path d="M0 0 C1.231394 3.69418201 0.64432764 6.2056261 0 10 C-0.99 10.33 -1.98 10.66 -3 11 C-2.44894091 7.0507432 -1.61064629 3.65079826 0 0 Z " fill="#88D6F0" transform="translate(17,90)"/>
<path d="M0 0 C0.66 0 1.32 0 2 0 C2 0.66 2 1.32 2 2 C2.99 2.33 3.98 2.66 5 3 C5.33 4.98 5.66 6.96 6 9 C0.42857143 3.85714286 0.42857143 3.85714286 0 0 Z " fill="#5996AE" transform="translate(235,63)"/>
<path d="M0 0 C0.66 0 1.32 0 2 0 C2 1.98 2 3.96 2 6 C1.01 6 0.02 6 -1 6 C-1.33 5.01 -1.66 4.02 -2 3 C-1.34 2.01 -0.68 1.02 0 0 Z " fill="#4B8EAB" transform="translate(245,207)"/>
<path d="M0 0 C0.66 0 1.32 0 2 0 C2.33 1.32 2.66 2.64 3 4 C3.66 4 4.32 4 5 4 C5.99 5.485 5.99 5.485 7 7 C6.67 7.99 6.34 8.98 6 10 C4.99723227 8.52270825 3.99785546 7.04311423 3 5.5625 C2.443125 4.73878906 1.88625 3.91507813 1.3125 3.06640625 C0 1 0 1 0 0 Z " fill="#1C6484" transform="translate(154,208)"/>
<path d="M0 0 C0.66 0 1.32 0 2 0 C4.09350689 3.4019487 4.17942163 6.05272412 4 10 C3.34 9.67 2.68 9.34 2 9 C1.3671875 6.93359375 1.3671875 6.93359375 0.875 4.4375 C0.70742188 3.61121094 0.53984375 2.78492188 0.3671875 1.93359375 C0.24601562 1.29550781 0.12484375 0.65742188 0 0 Z " fill="#65C4E4" transform="translate(18,195)"/>
<path d="M0 0 C2.5625 2.25 2.5625 2.25 5 5 C4.8125 7.3125 4.8125 7.3125 4 9 C1.49701566 6.06171403 0.53069061 3.82097239 0 0 Z " fill="#6CC8E6" transform="translate(193,155)"/>
<path d="M0 0 C2.25 -0.25 2.25 -0.25 5 0 C7.3125 2 7.3125 2 9 4 C8.01 4.33 7.02 4.66 6 5 C2.8125 3.125 2.8125 3.125 0 1 C0 0.67 0 0.34 0 0 Z " fill="#5D97AE" transform="translate(217,25)"/>
<path d="M0 0 C0.66 0.33 1.32 0.66 2 1 C0.875 3 0.875 3 -1 5 C-4.1875 5.25 -4.1875 5.25 -7 5 C-5.60683123 2.21366246 -3.84019484 2.06507306 -1 1 C-0.67 0.67 -0.34 0.34 0 0 Z " fill="#7FB3C7" transform="translate(214,239)"/>
<path d="M0 0 C0.66 0 1.32 0 2 0 C3.2890625 1.53125 3.2890625 1.53125 4.625 3.5 C5.07101563 4.1496875 5.51703125 4.799375 5.9765625 5.46875 C6.31429687 5.9740625 6.65203125 6.479375 7 7 C5.35 6.67 3.7 6.34 2 6 C1.34 4.02 0.68 2.04 0 0 Z " fill="#62C5E7" transform="translate(59,223)"/>
<path d="M0 0 C2.5 1.1875 2.5 1.1875 5 3 C5.3125 5.6875 5.3125 5.6875 5 8 C2.20127563 5.47211993 0.54226981 3.79588866 0 0 Z " fill="#4886A1" transform="translate(152,165)"/>
<path d="M0 0 C1.32 0.33 2.64 0.66 4 1 C4.33 2.98 4.66 4.96 5 7 C4.34 7 3.68 7 3 7 C2.67 6.01 2.34 5.02 2 4 C1.34 3.67 0.68 3.34 0 3 C0 2.01 0 1.02 0 0 Z " fill="#88D5ED" transform="translate(153,141)"/>
<path d="M0 0 C3.7952131 1.49097658 5.61042731 3.75700849 8 7 C6.35 7 4.7 7 3 7 C2.690625 6.21625 2.38125 5.4325 2.0625 4.625 C1.07124962 2.07669872 1.07124962 2.07669872 0 0 Z " fill="#7EB4C9" transform="translate(235,36)"/>
<path d="M0 0 C0.66 0.33 1.32 0.66 2 1 C0.25 3.0625 0.25 3.0625 -2 5 C-4.25 4.75 -4.25 4.75 -6 4 C-4.02 2.68 -2.04 1.36 0 0 Z " fill="#64C6E7" transform="translate(75,23)"/>
<path d="M0 0 C2.31 0.66 4.62 1.32 7 2 C6.67 2.99 6.34 3.98 6 5 C5.67 4.34 5.34 3.68 5 3 C3.35 3 1.7 3 0 3 C0 2.01 0 1.02 0 0 Z " fill="#3D87A8" transform="translate(181,249)"/>
<path d="M0 0 C1 4 1 4 -0.4375 6.75 C-1.2109375 7.86375 -1.2109375 7.86375 -2 9 C-2.66 8.67 -3.32 8.34 -4 8 C-2.68 5.36 -1.36 2.72 0 0 Z " fill="#116082" transform="translate(253,196)"/>
<path d="M0 0 C1.65 1.65 3.3 3.3 5 5 C4.67 5.66 4.34 6.32 4 7 C2.68 6.34 1.36 5.68 0 5 C0 3.35 0 1.7 0 0 Z " fill="#74ABC0" transform="translate(145,153)"/>
<path d="M0 0 C1.65 1.65 3.3 3.3 5 5 C4.67 5.66 4.34 6.32 4 7 C3.01 6.67 2.02 6.34 1 6 C0.67 4.02 0.34 2.04 0 0 Z " fill="#7CD1EC" transform="translate(160,107)"/>
<path d="M0 0 C1.32 0.33 2.64 0.66 4 1 C4.33 3.31 4.66 5.62 5 8 C2.27573689 5.64722731 1.1858237 3.37503669 0 0 Z " fill="#77ACC1" transform="translate(244,76)"/>
<path d="M0 0 C0.66 0.33 1.32 0.66 2 1 C0.70700306 3.88437779 -0.65941363 5.87219421 -3 8 C-3 6.68 -3 5.36 -3 4 C-2.34 4 -1.68 4 -1 4 C-0.67 2.68 -0.34 1.36 0 0 Z " fill="#70CBE8" transform="translate(53,67)"/>
<path d="M0 0 C1.485 0.99 1.485 0.99 3 2 C2.67 4.31 2.34 6.62 2 9 C1.67 9 1.34 9 1 9 C0.67 6.03 0.34 3.06 0 0 Z " fill="#54C0E6" transform="translate(122,52)"/>
<path d="M0 0 C1.485 0.99 1.485 0.99 3 2 C3.6875 5.625 3.6875 5.625 4 9 C1.43135272 7.71567636 1.053461 6.63365249 0 4 C0 2.68 0 1.36 0 0 Z " fill="#51BCE2" transform="translate(97,16)"/>
<path d="M0 0 C0.99 0.33 1.98 0.66 3 1 C3.33 3.31 3.66 5.62 4 8 C1.10067643 5.60490662 0.49831724 3.68754757 0 0 Z " fill="#0A6185" transform="translate(112,14)"/>
</svg>
